# xmcd
#
# Track frame offsets:
#	150
#	11040
#	32243
#	61006
#	84151
#	102714
#	162752
#	212305
#	248928
#	286181
#	311831
#
# Disc length: 4609 seconds
#
# Revision: 1
# Processed by: cddbd v1.5.2PL0 Copyright (c) Steve Scherf et al.
# Submitted via: audiograbber 1.83.01
#
DISCID=8b11ff0b
DTITLE=Stevie Ray Vaughan and Double Trouble - Live at Montreux 1982 and 1985 - D
DTITLE=isc 2 of 2 (07.15.1985)
DYEAR=2001
DGENRE=Blues
TTITLE0=Scuttle Buttin'
TTITLE1=Say What
TTITLE2=Ain't Gone N' Give Up On Love
TTITLE3=Pride And Joy
TTITLE4=Mary Had A Little Lamb
TTITLE5=Tin Pan Alley
TTITLE6=Voodoo Chile (Slight Return)
TTITLE7=Texas Flood
TTITLE8=Life Without You
TTITLE9=Gone Home
TTITLE10=Couldn't Stand The Weather
EXTD=
EXTT0=
EXTT1=
EXTT2=
EXTT3=
EXTT4=
EXTT5=
EXTT6=
EXTT7=
EXTT8=
EXTT9=
EXTT10=
PLAYORDER=
